<svg xmlns="http://www.w3.org/2000/svg" viewBox="0 0 512 512" fill="none">
  <!-- ??????????????????????????? -->
  <g stroke="#71717a" stroke-width="1" fill="none" opacity="0.28">
    <!-- ?? -->
    <circle cx="256" cy="256" r="232"/>
    <circle cx="256" cy="256" r="218"/>

    <!-- ????????????? -->
    <g font-family="serif" font-size="11" fill="#a1a1aa" stroke="none" opacity="0.45">
      <text x="256" y="34" text-anchor="middle">?</text>
      <text x="256" y="486" text-anchor="middle">?</text>
      <text x="34" y="261" text-anchor="middle">?</text>
      <text x="478" y="261" text-anchor="middle">?</text>
      <text x="98" y="78" text-anchor="middle">?</text>
      <text x="414" y="78" text-anchor="middle">?</text>
      <text x="98" y="444" text-anchor="middle">?</text>
      <text x="414" y="444" text-anchor="middle">?</text>
    </g>

    <!-- ?????? -->
    <g stroke-width="0.8" opacity="0.35">
      <circle cx="256" cy="256" r="205"/>
    </g>
    <g stroke-width="1.2" opacity="0.4">
      <g transform="translate(256 256)">
        <line x1="0" y1="-205" x2="0" y2="-198"/>
        <line x1="0" y1="205" x2="0" y2="198"/>
        <line x1="-205" y1="0" x2="-198" y2="0"/>
        <line x1="205" y1="0" x2="198" y2="0"/>
        <g transform="rotate(30)"><line x1="0" y1="-205" x2="0" y2="-198"/></g>
        <g transform="rotate(60)"><line x1="0" y1="-205" x2="0" y2="-198"/></g>
        <g transform="rotate(90)"><line x1="0" y1="-205" x2="0" y2="-198"/></g>
        <g transform="rotate(120)"><line x1="0" y1="-205" x2="0" y2="-198"/></g>
        <g transform="rotate(150)"><line x1="0" y1="-205" x2="0" y2="-198"/></g>
        <g transform="rotate(180)"><line x1="0" y1="-205" x2="0" y2="-198"/></g>
        <g transform="rotate(210)"><line x1="0" y1="-205" x2="0" y2="-198"/></g>
        <g transform="rotate(240)"><line x1="0" y1="-205" x2="0" y2="-198"/></g>
        <g transform="rotate(270)"><line x1="0" y1="-205" x2="0" y2="-198"/></g>
        <g transform="rotate(300)"><line x1="0" y1="-205" x2="0" y2="-198"/></g>
        <g transform="rotate(330)"><line x1="0" y1="-205" x2="0" y2="-198"/></g>
      </g>
    </g>

    <!-- ?? -->
    <circle cx="256" cy="256" r="175"/>
    <circle cx="256" cy="256" r="168"/>

    <!-- ?????? -->
    <polygon
      points="256,91 399.5,174 399.5,338 256,421 112.5,338 112.5,174"
    />

    <!-- ?????????? -->
    <polygon points="256,118 370,318 142,318"/>
    <polygon points="256,394 142,194 370,194"/>

    <!-- ?? -->
    <circle cx="256" cy="256" r="128"/>
    <circle cx="256" cy="256" r="120"/>

    <!-- ???????????????????? -->
    <rect x="196" y="196" width="120" height="120" rx="2"/>
    <line x1="196" y1="196" x2="316" y2="316"/>
    <line x1="316" y1="196" x2="196" y2="316"/>
    <line x1="256" y1="196" x2="256" y2="316"/>
    <line x1="196" y1="256" x2="316" y2="256"/>

    <!-- ????????????? -->
    <circle cx="256" cy="256" r="52"/>
    <circle cx="256" cy="204" r="14"/>
    <circle cx="256" cy="308" r="14"/>
    <circle cx="204" cy="256" r="14"/>
    <circle cx="308" cy="256" r="14"/>

    <!-- ?????????? -->
    <line x1="256" y1="91" x2="256" y2="204"/>
    <line x1="399.5" y1="174" x2="308" y2="256"/>
    <line x1="399.5" y1="338" x2="308" y2="256"/>
    <line x1="256" y1="421" x2="256" y2="308"/>
    <line x1="112.5" y1="338" x2="204" y2="256"/>
    <line x1="112.5" y1="174" x2="204" y2="256"/>

    <!-- ??????????? -->
    <path
      d="M 118 200 Q 145 256 118 312"
      stroke-width="0.9"
      opacity="0.35"
    />
    <path
      d="M 394 200 Q 367 256 394 312"
      stroke-width="0.9"
      opacity="0.35"
    />

    <!-- ?????? -->
    <circle cx="256" cy="256" r="18"/>
    <polygon points="256,242 268,262 244,262"/>
    <polygon points="256,270 244,250 268,250"/>
  </g>

  <!-- ???????? -->
  <g stroke="#a1a1aa" stroke-width="0.6" opacity="0.12">
    <circle cx="256" cy="256" r="88"/>
    <circle cx="256" cy="256" r="64"/>
  </g>
</svg>
